<mxfile host="app.diagrams.net" modified="2021-03-28T14:56:49.474Z" agent="5.0 (Windows NT 10.0; Win64; x64) AppleWebKit/537.36 (KHTML, like Gecko) Chrome/89.0.4389.90 Safari/537.36 Edg/89.0.774.63" etag="OtfepSGP4VHVMrhIWA76" version="14.5.3" type="github">
  <diagram id="zSh2a149f-0JXWldT1MG" name="AutomatedML">
    <mxGraphModel dx="1038" dy="580" grid="1" gridSize="10" guides="1" tooltips="1" connect="1" arrows="1" fold="1" page="1" pageScale="1" pageWidth="850" pageHeight="1100" math="0" shadow="0">
      <root>
        <mxCell id="0" />
        <mxCell id="1" parent="0" />
        <mxCell id="WBOZZxdTKDu7MEPYcMjf-1" value="" style="aspect=fixed;html=1;points=[];align=center;image;fontSize=12;image=img/lib/mscae/ClassicStorage.svg;" parent="1" vertex="1">
          <mxGeometry x="374" y="566.5" width="50" height="43" as="geometry" />
        </mxCell>
        <mxCell id="WBOZZxdTKDu7MEPYcMjf-8" value="" style="edgeStyle=orthogonalEdgeStyle;rounded=0;orthogonalLoop=1;jettySize=auto;html=1;" parent="1" source="WBOZZxdTKDu7MEPYcMjf-2" target="WBOZZxdTKDu7MEPYcMjf-3" edge="1">
          <mxGeometry relative="1" as="geometry" />
        </mxCell>
        <mxCell id="WBOZZxdTKDu7MEPYcMjf-2" value="" style="aspect=fixed;html=1;points=[];align=center;image;fontSize=12;image=img/lib/mscae/ClassicStorage.svg;" parent="1" vertex="1">
          <mxGeometry x="124" y="567" width="50" height="43" as="geometry" />
        </mxCell>
        <mxCell id="WBOZZxdTKDu7MEPYcMjf-9" value="" style="edgeStyle=orthogonalEdgeStyle;rounded=0;orthogonalLoop=1;jettySize=auto;html=1;" parent="1" source="WBOZZxdTKDu7MEPYcMjf-3" target="WBOZZxdTKDu7MEPYcMjf-1" edge="1">
          <mxGeometry relative="1" as="geometry" />
        </mxCell>
        <mxCell id="WBOZZxdTKDu7MEPYcMjf-3" value="" style="aspect=fixed;html=1;points=[];align=center;image;fontSize=12;image=img/lib/mscae/Data_Factory.svg;" parent="1" vertex="1">
          <mxGeometry x="254" y="563" width="50" height="50" as="geometry" />
        </mxCell>
        <mxCell id="WBOZZxdTKDu7MEPYcMjf-10" value="" style="edgeStyle=orthogonalEdgeStyle;rounded=0;orthogonalLoop=1;jettySize=auto;html=1;" parent="1" source="WBOZZxdTKDu7MEPYcMjf-4" target="WBOZZxdTKDu7MEPYcMjf-1" edge="1">
          <mxGeometry relative="1" as="geometry" />
        </mxCell>
        <mxCell id="WBOZZxdTKDu7MEPYcMjf-11" value="" style="edgeStyle=orthogonalEdgeStyle;rounded=0;orthogonalLoop=1;jettySize=auto;html=1;" parent="1" source="WBOZZxdTKDu7MEPYcMjf-4" target="WBOZZxdTKDu7MEPYcMjf-5" edge="1">
          <mxGeometry relative="1" as="geometry" />
        </mxCell>
        <mxCell id="WBOZZxdTKDu7MEPYcMjf-12" value="" style="edgeStyle=orthogonalEdgeStyle;rounded=0;orthogonalLoop=1;jettySize=auto;html=1;" parent="1" source="WBOZZxdTKDu7MEPYcMjf-4" target="WBOZZxdTKDu7MEPYcMjf-7" edge="1">
          <mxGeometry relative="1" as="geometry" />
        </mxCell>
        <mxCell id="WBOZZxdTKDu7MEPYcMjf-13" value="" style="edgeStyle=orthogonalEdgeStyle;rounded=0;orthogonalLoop=1;jettySize=auto;html=1;" parent="1" source="WBOZZxdTKDu7MEPYcMjf-4" target="WBOZZxdTKDu7MEPYcMjf-6" edge="1">
          <mxGeometry relative="1" as="geometry" />
        </mxCell>
        <mxCell id="WBOZZxdTKDu7MEPYcMjf-4" value="" style="aspect=fixed;html=1;points=[];align=center;image;fontSize=12;image=img/lib/mscae/Machine_Learning_Service_Workspaces.svg;" parent="1" vertex="1">
          <mxGeometry x="494" y="563" width="46" height="50" as="geometry" />
        </mxCell>
        <mxCell id="WBOZZxdTKDu7MEPYcMjf-5" value="" style="aspect=fixed;html=1;points=[];align=center;image;fontSize=12;image=img/lib/mscae/Batch_AI.svg;" parent="1" vertex="1">
          <mxGeometry x="499" y="670" width="36" height="50" as="geometry" />
        </mxCell>
        <mxCell id="WBOZZxdTKDu7MEPYcMjf-6" value="" style="aspect=fixed;html=1;points=[];align=center;image;fontSize=12;image=img/lib/mscae/Kubernetes_Services.svg;" parent="1" vertex="1">
          <mxGeometry x="492" y="441" width="50" height="37" as="geometry" />
        </mxCell>
        <mxCell id="WBOZZxdTKDu7MEPYcMjf-7" value="" style="aspect=fixed;html=1;points=[];align=center;image;fontSize=12;image=img/lib/mscae/Container_Registries.svg;" parent="1" vertex="1">
          <mxGeometry x="604" y="567" width="50" height="43" as="geometry" />
        </mxCell>
        <mxCell id="WBOZZxdTKDu7MEPYcMjf-14" value="" style="shape=flexArrow;endArrow=classic;html=1;width=21;endSize=8.6;" parent="1" edge="1">
          <mxGeometry width="50" height="50" relative="1" as="geometry">
            <mxPoint x="134" y="751" as="sourcePoint" />
            <mxPoint x="384" y="751" as="targetPoint" />
            <Array as="points">
              <mxPoint x="254" y="751" />
            </Array>
          </mxGeometry>
        </mxCell>
        <mxCell id="WBOZZxdTKDu7MEPYcMjf-16" value="Source N" style="text;html=1;strokeColor=none;fillColor=none;align=center;verticalAlign=middle;whiteSpace=wrap;rounded=0;" parent="1" vertex="1">
          <mxGeometry x="120" y="613" width="60" height="20" as="geometry" />
        </mxCell>
        <mxCell id="WBOZZxdTKDu7MEPYcMjf-17" value="Data Factory" style="text;html=1;strokeColor=none;fillColor=none;align=center;verticalAlign=middle;whiteSpace=wrap;rounded=0;" parent="1" vertex="1">
          <mxGeometry x="234" y="613" width="85" height="20" as="geometry" />
        </mxCell>
        <mxCell id="WBOZZxdTKDu7MEPYcMjf-18" value="&lt;span style=&quot;color: rgba(0 , 0 , 0 , 0) ; font-family: monospace ; font-size: 0px&quot;&gt;%3CmxGraphModel%3E%3Croot%3E%3CmxCell%20id%3D%220%22%2F%3E%3CmxCell%20id%3D%221%22%20parent%3D%220%22%2F%3E%3CmxCell%20id%3D%222%22%20value%3D%22Source%20N%22%20style%3D%22text%3Bhtml%3D1%3BstrokeColor%3Dnone%3BfillColor%3Dnone%3Balign%3Dcenter%3BverticalAlign%3Dmiddle%3BwhiteSpace%3Dwrap%3Brounded%3D0%3B%22%20vertex%3D%221%22%20parent%3D%221%22%3E%3CmxGeometry%20x%3D%22106%22%20y%3D%22353%22%20width%3D%2260%22%20height%3D%2220%22%20as%3D%22geometry%22%2F%3E%3C%2FmxCell%3E%3C%2Froot%3E%3C%2FmxGraphModel%3E&lt;/span&gt;" style="text;html=1;align=center;verticalAlign=middle;resizable=0;points=[];autosize=1;" parent="1" vertex="1">
          <mxGeometry x="414" y="640" width="20" height="20" as="geometry" />
        </mxCell>
        <mxCell id="WBOZZxdTKDu7MEPYcMjf-19" value="Data Lake Store" style="text;html=1;strokeColor=none;fillColor=none;align=center;verticalAlign=middle;whiteSpace=wrap;rounded=0;" parent="1" vertex="1">
          <mxGeometry x="351" y="613" width="95" height="20" as="geometry" />
        </mxCell>
        <mxCell id="WBOZZxdTKDu7MEPYcMjf-20" value="Automated ML" style="text;html=1;strokeColor=none;fillColor=none;align=center;verticalAlign=middle;whiteSpace=wrap;rounded=0;" parent="1" vertex="1">
          <mxGeometry x="524" y="560" width="90" height="20" as="geometry" />
        </mxCell>
        <mxCell id="WBOZZxdTKDu7MEPYcMjf-22" value="Batch AI" style="text;html=1;strokeColor=none;fillColor=none;align=center;verticalAlign=middle;whiteSpace=wrap;rounded=0;" parent="1" vertex="1">
          <mxGeometry x="542" y="680" width="68" height="20" as="geometry" />
        </mxCell>
        <mxCell id="WBOZZxdTKDu7MEPYcMjf-23" value="AKS" style="text;html=1;strokeColor=none;fillColor=none;align=center;verticalAlign=middle;whiteSpace=wrap;rounded=0;" parent="1" vertex="1">
          <mxGeometry x="460" y="469" width="50" height="20" as="geometry" />
        </mxCell>
        <mxCell id="WBOZZxdTKDu7MEPYcMjf-24" value="Model Repo" style="text;html=1;strokeColor=none;fillColor=none;align=center;verticalAlign=middle;whiteSpace=wrap;rounded=0;" parent="1" vertex="1">
          <mxGeometry x="586.5" y="609.5" width="85" height="20" as="geometry" />
        </mxCell>
        <mxCell id="WBOZZxdTKDu7MEPYcMjf-25" value="Ingest/Process Data" style="text;html=1;strokeColor=none;fillColor=none;align=center;verticalAlign=middle;whiteSpace=wrap;rounded=0;" parent="1" vertex="1">
          <mxGeometry x="174" y="741" width="160" height="20" as="geometry" />
        </mxCell>
        <mxCell id="WBOZZxdTKDu7MEPYcMjf-27" value="" style="shape=flexArrow;endArrow=classic;html=1;width=21;endSize=8.6;" parent="1" edge="1">
          <mxGeometry width="50" height="50" relative="1" as="geometry">
            <mxPoint x="384" y="750.5" as="sourcePoint" />
            <mxPoint x="654" y="751" as="targetPoint" />
            <Array as="points">
              <mxPoint x="504" y="750.5" />
            </Array>
          </mxGeometry>
        </mxCell>
        <mxCell id="WBOZZxdTKDu7MEPYcMjf-28" value="Model Dev/Repository" style="text;html=1;strokeColor=none;fillColor=none;align=center;verticalAlign=middle;whiteSpace=wrap;rounded=0;" parent="1" vertex="1">
          <mxGeometry x="414" y="740" width="200" height="20" as="geometry" />
        </mxCell>
        <mxCell id="WBOZZxdTKDu7MEPYcMjf-30" value="" style="shape=flexArrow;endArrow=classic;html=1;width=25;endSize=7.09;exitX=0.5;exitY=0;exitDx=0;exitDy=0;" parent="1" edge="1">
          <mxGeometry width="50" height="50" relative="1" as="geometry">
            <mxPoint x="575" y="560" as="sourcePoint" />
            <mxPoint x="575" y="360" as="targetPoint" />
          </mxGeometry>
        </mxCell>
        <mxCell id="WBOZZxdTKDu7MEPYcMjf-32" value="Deploy REST API" style="text;html=1;strokeColor=none;fillColor=none;align=center;verticalAlign=middle;whiteSpace=wrap;rounded=0;rotation=-90;" parent="1" vertex="1">
          <mxGeometry x="519.25" y="493.75" width="110.5" height="13" as="geometry" />
        </mxCell>
        <mxCell id="WBOZZxdTKDu7MEPYcMjf-38" value="" style="edgeStyle=orthogonalEdgeStyle;rounded=0;orthogonalLoop=1;jettySize=auto;html=1;" parent="1" source="WBOZZxdTKDu7MEPYcMjf-37" target="WBOZZxdTKDu7MEPYcMjf-6" edge="1">
          <mxGeometry relative="1" as="geometry" />
        </mxCell>
        <mxCell id="WBOZZxdTKDu7MEPYcMjf-37" value="" style="aspect=fixed;html=1;points=[];align=center;image;fontSize=12;image=img/lib/mscae/API_Management.svg;" parent="1" vertex="1">
          <mxGeometry x="492" y="345" width="50" height="42" as="geometry" />
        </mxCell>
        <mxCell id="WBOZZxdTKDu7MEPYcMjf-39" value="API" style="text;html=1;strokeColor=none;fillColor=none;align=center;verticalAlign=middle;whiteSpace=wrap;rounded=0;" parent="1" vertex="1">
          <mxGeometry x="469.5" y="375" width="50" height="20" as="geometry" />
        </mxCell>
        <mxCell id="WBOZZxdTKDu7MEPYcMjf-40" value="" style="shape=flexArrow;endArrow=classic;html=1;width=21;endSize=7.6;" parent="1" edge="1">
          <mxGeometry width="50" height="50" relative="1" as="geometry">
            <mxPoint x="516.5" y="253" as="sourcePoint" />
            <mxPoint x="516.5" y="343" as="targetPoint" />
          </mxGeometry>
        </mxCell>
        <mxCell id="WBOZZxdTKDu7MEPYcMjf-41" value="External Applications" style="text;html=1;strokeColor=none;fillColor=none;align=center;verticalAlign=middle;whiteSpace=wrap;rounded=0;" parent="1" vertex="1">
          <mxGeometry x="453" y="230" width="130" height="20" as="geometry" />
        </mxCell>
        <mxCell id="CbC_G3hPoaTiMAnqIA1--1" value="" style="shape=flexArrow;endArrow=classic;html=1;width=21;endSize=8.6;" edge="1" parent="1">
          <mxGeometry width="50" height="50" relative="1" as="geometry">
            <mxPoint x="124" y="530" as="sourcePoint" />
            <mxPoint x="400" y="530" as="targetPoint" />
            <Array as="points">
              <mxPoint x="244" y="530" />
            </Array>
          </mxGeometry>
        </mxCell>
        <mxCell id="CbC_G3hPoaTiMAnqIA1--3" value="" style="html=1;shadow=0;dashed=0;align=center;verticalAlign=middle;shape=mxgraph.arrows2.arrow;dy=0.6;dx=40;direction=north;notch=0;" vertex="1" parent="1">
          <mxGeometry x="399.5" y="360" width="70" height="190" as="geometry" />
        </mxCell>
        <mxCell id="CbC_G3hPoaTiMAnqIA1--4" value="Data Ops" style="text;html=1;strokeColor=none;fillColor=none;align=center;verticalAlign=middle;whiteSpace=wrap;rounded=0;" vertex="1" parent="1">
          <mxGeometry x="190" y="519.25" width="68" height="20" as="geometry" />
        </mxCell>
        <mxCell id="CbC_G3hPoaTiMAnqIA1--6" value="MLOps" style="text;html=1;strokeColor=none;fillColor=none;align=center;verticalAlign=middle;whiteSpace=wrap;rounded=0;rotation=-90;" vertex="1" parent="1">
          <mxGeometry x="398.5" y="473" width="68" height="20" as="geometry" />
        </mxCell>
      </root>
    </mxGraphModel>
  </diagram>
</mxfile>
